<svg xmlns="http://www.w3.org/2000/svg" xmlns:xlink="http://www.w3.org/1999/xlink" id="Layer_1" x="0px" y="0px" viewBox="0 0 281.4 90.9" style="enable-background:new 0 0 281.4 90.9;" xml:space="preserve">
<style type="text/css">
	.st0{fill:#24E7FC;}
	.st1{fill:#7112FF;}
	.st2{fill:#202020;}
</style>
<g>
	<g>
		<path class="st0" d="M41.4,37.4c4.1,1.4,6.9,2.9,9.4,4.7c3.3-3.9,3.6-8.9,3.2-12.4C51.2,33.1,46.9,35.7,41.4,37.4z"></path>
		<path class="st1" d="M21.3,73c2.9-4,6.7-4.9,13.3-6.5c2.6-0.6,5.5-1.3,9-2.4c8.2-2.4,10.3-7,10.8-9.6c0.7-3.3-0.5-6.9-3.1-9    c-5.5-4.6-11-6.4-19.1-8.1l-1.7-0.4l1.8-0.2c9.9-1.2,16.8-4.4,20.5-9.5c2.8-3.8,3-7.7,2.9-9.4c-2.2,3.4-6.5,4.4-13.4,6.1    c-2.8,0.7-6.1,1.4-9.8,2.5c-8.2,2.4-10.3,7-10.8,9.6c-0.7,3.3,0.5,6.9,3.1,9c5.5,4.6,11,6.4,19.1,8.1l1.7,0.4l-1.8,0.2    c-5,0.6-9.9,1.7-13.6,3c-4.7,1.7-7.7,3.7-8.9,6C19.7,66.1,20.9,71.2,21.3,73z"></path>
	</g>
	<g>
		<path class="st2" d="M76.3,52l1.9-4c1.9,1.4,4.2,2.6,7.8,2.6c2,0,4.4-0.9,4.4-2.8c0-1.8-2.1-2.3-4.2-2.8c-4.4-1-9-2.5-9-7.5    c0-4.6,4.3-6.9,8.8-6.9c3.6,0,6.3,1,8.7,2.5l-1.9,4c-1.9-1.2-4.4-1.9-6.8-1.9c-1.2,0-3.6,0.5-3.6,2.3c0,1.5,1.7,2.1,4.1,2.6    c4.2,1,9.3,2.6,9.3,7.7c0,5.1-5,7.4-9.7,7.4C80.3,55.2,77.6,53.1,76.3,52z"></path>
		<path class="st2" d="M98.9,47.5v-11h4.9v10.3c0,2.6,1.1,3.7,3.4,3.7c2.6,0,3.8-2.2,3.8-4.7v-9.4h4.9v18.3h-4.6v-2.6    c-1.1,1.8-3.6,2.9-5.7,2.9C100.5,55.2,98.9,52.2,98.9,47.5z"></path>
		<path class="st2" d="M119.7,36.5h4.7v2.2c1.5-1.8,3.7-2.6,5.9-2.6c5.1,0,8.3,4.2,8.3,9.5c0,5.3-3.3,9.6-8.4,9.6    c-2.1,0-4.2-0.8-5.5-2.5v7.4h-4.9L119.7,36.5L119.7,36.5z M133.4,45.7c0-2.9-1.9-5-4.5-5c-2.5,0-4.4,2.1-4.4,5c0,2.9,1.8,5,4.4,5    C131.6,50.7,133.4,48.6,133.4,45.7z"></path>
		<path class="st2" d="M141.1,45.7c0-5.3,4.1-9.5,9.5-9.5c5,0,8.9,4.2,8.9,9.4c0,0.9-0.1,1.8-0.1,1.8h-13.3c0.6,2.5,2.7,3.7,5.1,3.7    c1.8,0,3.6-0.5,4.9-1.4l1.8,3.5c-2.1,1.4-4.4,2-6.8,2C145.8,55.2,141.1,51.7,141.1,45.7z M154.9,44.1c-0.4-2.3-2.2-3.8-4.4-3.8    c-2.1,0-4,1.5-4.4,3.8H154.9z"></path>
		<path class="st2" d="M162.7,36.5h4.8V40c0.5-1.5,2.4-3.9,6.4-3.9v5.3c-4.2,0-6.3,1.9-6.3,6.3v7h-4.9V36.5z"></path>
		<path class="st2" d="M177.1,31.1h17.8v4.4h-12.6v4.8H193v4.4h-10.8v10.1h-5.1V31.1z"></path>
		<path class="st2" d="M195.9,45.7c0-5.3,3.2-9.5,8.3-9.5c2.1,0,4.4,0.8,5.7,2.6v-2.2h4.8v18.3h-4.8v-2.2c-1.3,1.8-3.6,2.6-5.7,2.6    C199.1,55.2,195.9,51,195.9,45.7z M209.8,45.7c0-2.9-1.8-5-4.4-5c-2.6,0-4.5,2.1-4.5,5c0,2.9,1.9,5,4.5,5    C208,50.7,209.8,48.6,209.8,45.7z"></path>
		<path class="st2" d="M218.5,36.5h4.8V40c0.5-1.5,2.4-3.9,6.4-3.9v5.3c-4.2,0-6.3,1.9-6.3,6.3v7h-4.9L218.5,36.5L218.5,36.5z"></path>
		<path class="st2" d="M232.4,36.5h4.8V39c1.1-1.6,3.2-2.8,5.4-2.8c2.9,0,4.7,1.2,5.6,3.3c1.3-2.2,3.8-3.3,5.9-3.3    c5.2,0,6.8,3.6,6.8,8.2v10.4H256V45c0-2.4-0.6-4.2-3.2-4.2c-2.4,0-3.7,1.9-3.7,4.4v9.7h-4.9V45c0-2.4-0.5-4.2-3.2-4.2    c-2.5,0-3.7,2.1-3.7,4.5v9.5h-4.9L232.4,36.5L232.4,36.5z"></path>
	</g>
</g>
</svg>